<svg width="610" height="560" viewBox="0 0 610 560" fill="none" xmlns="http://www.w3.org/2000/svg">
<g filter="url(#filter0_d_1_1058)">
<path d="M403.243 420.726L410.84 434.906L415.538 425.11L403.243 420.726Z" fill="#005BB3"/>
<path d="M511.834 445.879L470.966 529.825C469.447 532.946 465.688 534.247 462.573 532.731L387.906 496.38C384.791 494.864 383.497 491.102 385.016 487.981L437.504 380.166C439.024 377.045 442.783 375.743 445.898 377.26L494.688 401.012L511.834 445.879Z" fill="white"/>
<path d="M457.862 447.632L404.17 421.492C402.877 420.863 402.34 419.3 402.97 418.005L414.546 394.228C415.176 392.933 416.738 392.392 418.03 393.021L471.723 419.161C473.015 419.79 473.553 421.353 472.923 422.647L461.347 446.425C460.716 447.72 459.154 448.261 457.862 447.632Z" fill="#0283FF"/>
<path d="M419.942 422.25L426.78 408.205L422.015 405.885L423.225 403.4L435.685 409.466L434.48 411.94L429.716 409.62L422.873 423.676L419.942 422.25Z" fill="white"/>
<path d="M428.122 426.232L436.965 419.999L436.469 409.848L439.722 411.432L439.75 415.978C439.766 416.472 439.771 416.961 439.758 417.455C439.758 417.955 439.757 418.513 439.775 419.122L439.879 419.173C440.323 418.788 440.727 418.427 441.097 418.107C441.467 417.787 441.843 417.483 442.219 417.18L445.745 414.364L448.848 415.875L440.491 421.873L441.101 432.551L437.847 430.967L437.725 426.089C437.719 425.543 437.708 425.008 437.715 424.468C437.715 423.939 437.715 423.353 437.703 422.732L437.599 422.682C437.133 423.084 436.7 423.445 436.295 423.777C435.891 424.109 435.481 424.453 435.071 424.797L431.225 427.743L428.122 426.232Z" fill="white"/>
<path d="M446.362 435.112L453.199 421.067L448.434 418.747L449.644 416.262L462.104 422.328L460.9 424.802L456.135 422.482L449.292 436.538L446.362 435.112Z" fill="white"/>
<path d="M511.833 445.879L511.405 446.758L483.324 433.087C481.179 432.043 480.298 429.455 481.345 427.304L494.249 400.799L494.687 401.012L511.833 445.879Z" fill="#E6E7E8"/>
<path d="M478.152 474.668L423.986 448.298L426.265 443.617L480.431 469.986L480.443 469.992L478.164 474.674L478.152 474.668Z" fill="#E6E7E8"/>
<path d="M472.901 485.453L418.735 459.083L421.015 454.402L475.18 480.771L475.192 480.777L472.913 485.459L472.901 485.453Z" fill="#E6E7E8"/>
<path d="M467.657 496.226L413.491 469.857L415.764 465.187L469.93 491.556L469.942 491.562L467.668 496.232L467.657 496.226Z" fill="#E6E7E8"/>
<path d="M462.406 507.011L408.24 480.641L410.519 475.96L464.685 502.329L464.696 502.335L462.417 507.017L462.406 507.011Z" fill="#E6E7E8"/>
</g>
<defs>
<filter id="filter0_d_1_1058" x="380.993" y="376.627" width="146.27" height="177.435" filterUnits="userSpaceOnUse" color-interpolation-filters="sRGB">
<feFlood flood-opacity="0" result="BackgroundImageFix"/>
<feColorMatrix in="SourceAlpha" type="matrix" values="0 0 0 0 0 0 0 0 0 0 0 0 0 0 0 0 0 0 127 0" result="hardAlpha"/>
<feOffset dx="6.02133" dy="11.29"/>
<feGaussianBlur stdDeviation="4.70416"/>
<feComposite in2="hardAlpha" operator="out"/>
<feColorMatrix type="matrix" values="0 0 0 0 0 0 0 0 0 0 0 0 0 0 0 0 0 0 0.4 0"/>
<feBlend mode="normal" in2="BackgroundImageFix" result="effect1_dropShadow_1_1058"/>
<feBlend mode="normal" in="SourceGraphic" in2="effect1_dropShadow_1_1058" result="shape"/>
</filter>
</defs>
</svg>
