<svg width="610" height="560" viewBox="0 0 610 560" fill="none" xmlns="http://www.w3.org/2000/svg">
<mask id="mask0_1_1058" style="mask-type:alpha" maskUnits="userSpaceOnUse" x="0" y="0" width="610" height="560">
<rect width="610" height="560" fill="#C4C4C4"/>
</mask>
<g mask="url(#mask0_1_1058)">
<g filter="url(#filter0_d_1_1058)">
<path d="M127.204 462.013L142.896 465.957L138.852 455.874L127.204 462.013Z" fill="#BA1E2A"/>
<path d="M220.037 398.639L254.275 485.499C255.548 488.729 253.943 492.388 250.691 493.669L172.747 524.392C169.496 525.674 165.826 524.094 164.553 520.865L120.58 409.305C119.307 406.076 120.912 402.417 124.163 401.135L175.094 381.06L220.037 398.639Z" fill="white"/>
<path d="M184.452 439.751L128.403 461.844C127.054 462.376 125.529 461.719 125.001 460.38L115.303 435.776C114.775 434.436 115.442 432.916 116.791 432.384L172.84 410.292C174.189 409.76 175.714 410.416 176.242 411.756L185.94 436.36C186.468 437.699 185.801 439.22 184.452 439.751Z" fill="#ED1B24"/>
<path d="M133.877 452.997L127.135 435.893L132.555 433.757C133.506 433.382 134.419 433.119 135.308 432.975C136.198 432.832 137.009 432.844 137.777 433.025C138.544 433.206 139.218 433.576 139.82 434.113C140.421 434.65 140.919 435.421 141.311 436.413C141.683 437.358 141.835 438.238 141.776 439.077C141.712 439.903 141.486 440.67 141.075 441.357C140.669 442.056 140.114 442.662 139.392 443.195C138.682 443.724 137.857 444.173 136.93 444.539L134.449 445.516L136.924 451.796L133.877 452.997ZM133.504 443.084L135.744 442.201C138.273 441.204 139.128 439.665 138.312 437.595C137.888 436.519 137.265 435.894 136.443 435.748C135.62 435.602 134.577 435.779 133.288 436.287L131.156 437.127L133.504 443.084Z" fill="white"/>
<path d="M149.208 446.954L142.466 429.85L147.079 428.032C149.716 426.992 152.042 426.891 154.079 427.718C156.117 428.546 157.686 430.373 158.799 433.196C159.355 434.607 159.653 435.927 159.709 437.163C159.759 438.387 159.564 439.514 159.136 440.512C158.713 441.521 158.07 442.397 157.205 443.166C156.339 443.936 155.266 444.566 153.989 445.069L149.208 446.954V446.954ZM151.289 443.301L152.637 442.769C154.396 442.076 155.547 441.042 156.09 439.667C156.633 438.292 156.49 436.552 155.66 434.447C154.835 432.354 153.767 431.02 152.434 430.426C151.105 429.844 149.58 429.893 147.833 430.581L146.484 431.113L151.289 443.301Z" fill="white"/>
<path d="M165.659 440.47L158.917 423.366L169.323 419.264L170.331 421.824L162.985 424.72L164.895 429.564L171.157 427.095L172.166 429.655L165.903 432.124L168.718 439.264L165.659 440.47Z" fill="white"/>
<path d="M220.037 398.639L220.395 399.548L191.082 411.102C188.842 411.985 186.324 410.891 185.447 408.667L174.636 381.24L175.094 381.06L220.037 398.639Z" fill="#E6E7E8"/>
<path d="M218.34 442.977L161.797 465.264L159.888 460.42L216.431 438.133L216.443 438.128L218.352 442.972L218.34 442.977Z" fill="#E6E7E8"/>
<path d="M222.739 454.137L166.196 476.424L164.287 471.58L220.83 449.293L220.842 449.288L222.751 454.132L222.739 454.137Z" fill="#E6E7E8"/>
<path d="M227.133 465.284L170.59 487.572L168.686 482.739L225.228 460.452L225.24 460.447L227.145 465.279L227.133 465.284Z" fill="#E6E7E8"/>
<path d="M231.532 476.444L174.989 498.731L173.08 493.887L229.623 471.6L229.635 471.595L231.544 476.439L231.532 476.444Z" fill="#E6E7E8"/>
</g>
</g>
<defs>
<filter id="filter0_d_1_1058" x="105.338" y="381.06" width="158.406" height="167.11" filterUnits="userSpaceOnUse" color-interpolation-filters="sRGB">
<feFlood flood-opacity="0" result="BackgroundImageFix"/>
<feColorMatrix in="SourceAlpha" type="matrix" values="0 0 0 0 0 0 0 0 0 0 0 0 0 0 0 0 0 0 127 0" result="hardAlpha"/>
<feOffset dx="-0.376333" dy="13.9243"/>
<feGaussianBlur stdDeviation="4.70416"/>
<feComposite in2="hardAlpha" operator="out"/>
<feColorMatrix type="matrix" values="0 0 0 0 0 0 0 0 0 0 0 0 0 0 0 0 0 0 0.4 0"/>
<feBlend mode="normal" in2="BackgroundImageFix" result="effect1_dropShadow_1_1058"/>
<feBlend mode="normal" in="SourceGraphic" in2="effect1_dropShadow_1_1058" result="shape"/>
</filter>
</defs>
</svg>
