<svg width="610" height="560" viewBox="0 0 610 560" fill="none" xmlns="http://www.w3.org/2000/svg">
<mask id="mask0_1_1058" style="mask-type:alpha" maskUnits="userSpaceOnUse" x="0" y="0" width="610" height="560">
<rect width="610" height="560" fill="#C4C4C4"/>
</mask>
<g mask="url(#mask0_1_1058)">
<g filter="url(#filter0_d_1_1058)">
<path d="M258.911 412.752L272.006 422.176L271.941 411.312L258.911 412.752Z" fill="#BF9017"/>
<path d="M368.035 387.836V481.201C368.035 484.672 365.213 487.488 361.733 487.488H278.32C274.841 487.488 272.018 484.672 272.018 481.201V361.287C272.018 357.816 274.841 355.001 278.32 355.001H332.825L368.035 387.836Z" fill="white"/>
<path d="M320.066 413.035H260.084C258.641 413.035 257.468 411.865 257.468 410.425V383.979C257.468 382.539 258.641 381.369 260.084 381.369H320.066C321.509 381.369 322.682 382.539 322.682 383.979V410.425C322.682 411.865 321.509 413.035 320.066 413.035Z" fill="#D8A521"/>
<path d="M270.394 407.159C269.093 407.159 267.997 406.902 267.108 406.375C266.219 405.848 265.484 405.077 264.891 404.035L267.147 402.377C267.52 403.045 267.959 403.547 268.448 403.855C268.938 404.164 269.466 404.318 270.021 404.318C270.884 404.318 271.529 404.061 271.967 403.534C272.405 403.007 272.611 402.094 272.611 400.782V388.44H275.885V401.065C275.885 401.914 275.782 402.698 275.575 403.444C275.369 404.189 275.034 404.832 274.583 405.385C274.132 405.938 273.565 406.375 272.869 406.696C272.173 406.992 271.348 407.159 270.394 407.159Z" fill="white"/>
<path d="M280.473 406.812V388.427H286.273C287.291 388.427 288.232 388.517 289.108 388.71C289.985 388.903 290.732 389.211 291.377 389.661C292.021 390.111 292.511 390.702 292.872 391.422C293.232 392.142 293.413 393.042 293.413 394.109C293.413 395.125 293.232 395.999 292.872 396.758C292.511 397.504 292.021 398.134 291.389 398.622C290.758 399.124 290.023 399.483 289.16 399.715C288.309 399.946 287.381 400.062 286.389 400.062H283.734V406.812H280.473ZM283.747 397.452H286.144C288.85 397.452 290.204 396.334 290.204 394.109C290.204 392.952 289.856 392.142 289.147 391.705C288.438 391.268 287.407 391.05 286.028 391.05H283.747V397.452V397.452Z" fill="white"/>
<path d="M304.6 407.159C303.363 407.159 302.203 406.953 301.146 406.542C300.089 406.13 299.161 405.526 298.388 404.716C297.602 403.906 296.996 402.916 296.571 401.733C296.133 400.55 295.927 399.2 295.927 397.683C295.927 396.179 296.146 394.842 296.597 393.646C297.048 392.451 297.666 391.448 298.44 390.625C299.213 389.802 300.141 389.172 301.198 388.735C302.255 388.298 303.402 388.092 304.626 388.092C305.941 388.092 307.049 388.337 307.964 388.812C308.879 389.288 309.627 389.828 310.207 390.432L308.454 392.541C307.99 392.091 307.461 391.705 306.894 391.397C306.327 391.088 305.606 390.934 304.742 390.934C303.917 390.934 303.17 391.088 302.5 391.397C301.829 391.705 301.262 392.142 300.785 392.721C300.309 393.286 299.935 393.994 299.677 394.816C299.419 395.639 299.277 396.565 299.277 397.593C299.277 399.689 299.754 401.335 300.695 402.53C301.649 403.726 303.054 404.317 304.91 404.317C305.438 404.317 305.928 404.253 306.405 404.112C306.869 403.97 307.255 403.765 307.565 403.507V399.548H304.072V396.873H310.503V404.973C309.884 405.59 309.06 406.117 308.041 406.529C307.01 406.94 305.863 407.159 304.6 407.159Z" fill="white"/>
<path d="M368.036 387.836V388.813H336.666C334.269 388.813 332.336 386.872 332.336 384.48V355H332.826L368.036 387.836Z" fill="#E6E7E8"/>
<path d="M350.275 428.463H289.765V423.256H350.275H350.288V428.463H350.275Z" fill="#E6E7E8"/>
<path d="M350.275 440.458H289.765V435.251H350.275H350.288V440.458H350.275Z" fill="#E6E7E8"/>
<path d="M350.276 452.44H289.765V447.246H350.276H350.288V452.44H350.276Z" fill="#E6E7E8"/>
<path d="M350.275 464.435H289.765V459.229H350.275H350.288V464.435H350.275Z" fill="#E6E7E8"/>
</g>
</g>
<defs>
<filter id="filter0_d_1_1058" x="244.296" y="355" width="129.385" height="155.82" filterUnits="userSpaceOnUse" color-interpolation-filters="sRGB">
<feFlood flood-opacity="0" result="BackgroundImageFix"/>
<feColorMatrix in="SourceAlpha" type="matrix" values="0 0 0 0 0 0 0 0 0 0 0 0 0 0 0 0 0 0 127 0" result="hardAlpha"/>
<feOffset dx="-3.76333" dy="13.9243"/>
<feGaussianBlur stdDeviation="4.70416"/>
<feComposite in2="hardAlpha" operator="out"/>
<feColorMatrix type="matrix" values="0 0 0 0 0 0 0 0 0 0 0 0 0 0 0 0 0 0 0.4 0"/>
<feBlend mode="normal" in2="BackgroundImageFix" result="effect1_dropShadow_1_1058"/>
<feBlend mode="normal" in="SourceGraphic" in2="effect1_dropShadow_1_1058" result="shape"/>
</filter>
</defs>
</svg>
