<svg width="610" height="560" viewBox="0 0 610 560" fill="none" xmlns="http://www.w3.org/2000/svg">
<mask id="mask0_39_92" style="mask-type:alpha" maskUnits="userSpaceOnUse" x="0" y="0" width="610" height="560">
<rect width="610" height="560" fill="#C4C4C4"/>
</mask>
<g mask="url(#mask0_39_92)">
<g filter="url(#filter0_b_39_92)">
<path fill-rule="evenodd" clip-rule="evenodd" d="M103.28 205.946C103.28 198.964 103.28 195.473 104.639 192.807C105.834 190.461 107.741 188.554 110.086 187.359C112.753 186 116.244 186 123.225 186H125.719C132.7 186 136.191 186 138.858 187.359C141.203 188.554 143.11 190.461 144.306 192.807C145.664 195.473 145.664 198.964 145.664 205.946V525.076C145.664 532.057 145.664 535.548 144.306 538.215C143.11 540.561 141.203 542.468 138.858 543.663C136.191 545.021 132.7 545.021 125.719 545.021H123.225C116.244 545.021 112.753 545.021 110.086 543.663C107.741 542.468 105.834 540.561 104.639 538.215C103.28 535.548 103.28 532.057 103.28 525.076V205.946Z" fill="black" fill-opacity="0.364909"/>
</g>
<path fill-rule="evenodd" clip-rule="evenodd" d="M124.472 522.583C127.226 522.583 129.458 520.35 129.458 517.596C129.458 514.842 127.226 512.61 124.472 512.61C121.718 512.61 119.485 514.842 119.485 517.596C119.485 520.35 121.718 522.583 124.472 522.583ZM124.472 523.829C127.914 523.829 130.705 521.039 130.705 517.596C130.705 514.154 127.914 511.363 124.472 511.363C121.029 511.363 118.239 514.154 118.239 517.596C118.239 521.039 121.029 523.829 124.472 523.829Z" fill="white"/>
<rect x="123.225" y="240.851" width="2.4932" height="249.32" rx="1.2466" fill="#D1D1D6"/>
<rect x="123.225" y="365.511" width="2.4932" height="124.66" rx="1.2466" fill="#0C7BEE"/>
<path fill-rule="evenodd" clip-rule="evenodd" d="M124.472 199.089C124.816 199.089 125.095 199.368 125.095 199.713V202.206C125.095 202.55 124.816 202.829 124.472 202.829C124.128 202.829 123.849 202.55 123.849 202.206V199.713C123.849 199.368 124.128 199.089 124.472 199.089ZM114.333 203.286C114.576 203.042 114.971 203.042 115.214 203.286L116.985 205.056C117.228 205.299 117.228 205.694 116.985 205.938C116.741 206.181 116.346 206.181 116.103 205.938L114.333 204.167C114.089 203.924 114.089 203.529 114.333 203.286ZM134.611 203.286C134.855 203.529 134.855 203.924 134.611 204.167L132.841 205.938C132.598 206.181 132.203 206.181 131.96 205.938C131.716 205.694 131.716 205.299 131.96 205.056L133.73 203.286C133.973 203.042 134.368 203.042 134.611 203.286ZM124.472 207.815C121.374 207.815 118.862 210.327 118.862 213.425C118.862 216.523 121.374 219.035 124.472 219.035C127.57 219.035 130.082 216.523 130.082 213.425C130.082 210.327 127.57 207.815 124.472 207.815ZM117.616 213.425C117.616 209.639 120.686 206.569 124.472 206.569C128.259 206.569 131.328 209.639 131.328 213.425C131.328 217.212 128.259 220.281 124.472 220.281C120.686 220.281 117.616 217.212 117.616 213.425ZM110.136 213.425C110.136 213.081 110.415 212.802 110.76 212.802H113.253C113.597 212.802 113.876 213.081 113.876 213.425C113.876 213.769 113.597 214.048 113.253 214.048H110.76C110.415 214.048 110.136 213.769 110.136 213.425ZM135.068 213.425C135.068 213.081 135.347 212.802 135.692 212.802H138.185C138.529 212.802 138.808 213.081 138.808 213.425C138.808 213.769 138.529 214.048 138.185 214.048H135.692C135.347 214.048 135.068 213.769 135.068 213.425ZM116.985 220.913C117.228 221.156 117.228 221.551 116.985 221.794L115.214 223.564C114.971 223.808 114.576 223.808 114.333 223.564C114.089 223.321 114.089 222.926 114.333 222.683L116.103 220.913C116.346 220.669 116.741 220.669 116.985 220.913ZM131.96 220.913C132.203 220.669 132.598 220.669 132.841 220.913L134.611 222.683C134.855 222.926 134.855 223.321 134.611 223.564C134.368 223.808 133.973 223.808 133.73 223.564L131.96 221.794C131.716 221.551 131.716 221.156 131.96 220.913ZM124.472 224.021C124.816 224.021 125.095 224.3 125.095 224.645V227.138C125.095 227.482 124.816 227.761 124.472 227.761C124.128 227.761 123.849 227.482 123.849 227.138V224.645C123.849 224.3 124.128 224.021 124.472 224.021Z" fill="white"/>
<circle cx="124.472" cy="365.511" r="14.9592" fill="white"/>
</g>
<defs>
<filter id="filter0_b_39_92" x="69.3936" y="152.114" width="110.157" height="426.794" filterUnits="userSpaceOnUse" color-interpolation-filters="sRGB">
<feFlood flood-opacity="0" result="BackgroundImageFix"/>
<feGaussianBlur in="BackgroundImageFix" stdDeviation="16.9431"/>
<feComposite in2="SourceAlpha" operator="in" result="effect1_backgroundBlur_39_92"/>
<feBlend mode="normal" in="SourceGraphic" in2="effect1_backgroundBlur_39_92" result="shape"/>
</filter>
</defs>
</svg>
