<svg width="610" height="560" viewBox="0 0 610 560" fill="none" xmlns="http://www.w3.org/2000/svg">
<mask id="mask0_39_102" style="mask-type:alpha" maskUnits="userSpaceOnUse" x="0" y="0" width="610" height="560">
<rect width="610" height="560" fill="#C4C4C4"/>
</mask>
<g mask="url(#mask0_39_102)">
<g filter="url(#filter0_b_39_102)">
<path fill-rule="evenodd" clip-rule="evenodd" d="M481.494 205.946C481.494 198.964 481.494 195.473 482.853 192.807C484.048 190.461 485.955 188.554 488.3 187.359C490.967 186 494.458 186 501.44 186H503.933C510.914 186 514.405 186 517.072 187.359C519.417 188.554 521.324 190.461 522.52 192.807C523.878 195.473 523.878 198.964 523.878 205.946V525.076C523.878 532.057 523.878 535.548 522.52 538.215C521.324 540.561 519.417 542.468 517.072 543.663C514.405 545.021 510.914 545.021 503.933 545.021H501.44C494.458 545.021 490.967 545.021 488.3 543.663C485.955 542.468 484.048 540.561 482.853 538.215C481.494 535.548 481.494 532.057 481.494 525.076V205.946Z" fill="black" fill-opacity="0.364909"/>
</g>
<path fill-rule="evenodd" clip-rule="evenodd" d="M502.55 523.557C505.917 523.557 508.647 520.827 508.647 517.46C508.647 514.093 505.917 511.363 502.55 511.363C499.183 511.363 496.453 514.093 496.453 517.46C496.453 520.827 499.183 523.557 502.55 523.557ZM502.55 524.804C506.606 524.804 509.894 521.516 509.894 517.46C509.894 513.404 506.606 510.116 502.55 510.116C498.494 510.116 495.206 513.404 495.206 517.46C495.206 521.516 498.494 524.804 502.55 524.804Z" fill="white"/>
<path fill-rule="evenodd" clip-rule="evenodd" d="M502.641 512.565C505.345 512.565 507.537 514.757 507.537 517.461C507.537 520.165 505.345 522.357 502.641 522.357V512.565Z" fill="white"/>
<rect x="501.44" y="240.851" width="2.4932" height="249.32" rx="1.2466" fill="#D1D1D6"/>
<circle cx="502.686" cy="475.212" r="14.9592" fill="white"/>
<path fill-rule="evenodd" clip-rule="evenodd" d="M502.686 200.959C509.571 200.959 515.152 206.54 515.152 213.425C515.152 220.31 509.571 225.891 502.686 225.891C495.801 225.891 490.22 220.31 490.22 213.425C490.22 206.54 495.801 200.959 502.686 200.959ZM502.686 202.206C496.49 202.206 491.467 207.229 491.467 213.425C491.467 219.621 496.49 224.644 502.686 224.644C508.882 224.644 513.905 219.621 513.905 213.425C513.905 207.229 508.882 202.206 502.686 202.206ZM493.96 213.425C493.96 208.606 497.867 204.699 502.686 204.699V222.151H502.706L502.686 222.151C497.867 222.151 493.96 218.244 493.96 213.425Z" fill="#1EA1F3"/>
</g>
<defs>
<filter id="filter0_b_39_102" x="447.608" y="152.114" width="110.157" height="426.794" filterUnits="userSpaceOnUse" color-interpolation-filters="sRGB">
<feFlood flood-opacity="0" result="BackgroundImageFix"/>
<feGaussianBlur in="BackgroundImageFix" stdDeviation="16.9431"/>
<feComposite in2="SourceAlpha" operator="in" result="effect1_backgroundBlur_39_102"/>
<feBlend mode="normal" in="SourceGraphic" in2="effect1_backgroundBlur_39_102" result="shape"/>
</filter>
</defs>
</svg>
